<?xml version="1.0" encoding="utf-8" ?>
<svg baseProfile="full" height="800" version="1.1" width="640" xmlns="http://www.w3.org/2000/svg" xmlns:ev="http://www.w3.org/2001/xml-events" xmlns:xlink="http://www.w3.org/1999/xlink"><defs /><rect height="15" id="N01" width="15" x="147.5" y="72.5" /><text fill="black" id="N01_tt" x="155.0" y="70.0">N01</text><rect height="15" id="N02" width="15" x="147.5" y="117.5" /><text fill="black" id="N02_tt" x="155.0" y="115.0">N02</text><rect height="15" id="N03" width="15" x="147.5" y="162.5" /><text fill="black" id="N03_tt" x="155.0" y="160.0">N03</text><rect height="15" id="N04" width="15" x="147.5" y="207.5" /><text fill="black" id="N04_tt" x="155.0" y="205.0">N04</text><rect height="15" id="N05" width="15" x="147.5" y="252.5" /><text fill="black" id="N05_tt" x="155.0" y="250.0">N05</text><rect height="15" id="N06" width="15" x="147.5" y="297.5" /><text fill="black" id="N06_tt" x="155.0" y="295.0">N06</text><rect height="15" id="N07" width="15" x="147.5" y="342.5" /><text fill="black" id="N07_tt" x="155.0" y="340.0">N07</text><rect height="15" id="N08" width="15" x="147.5" y="387.5" /><text fill="black" id="N08_tt" x="155.0" y="385.0">N08</text><rect height="15" id="N09" width="15" x="192.5" y="297.5" /><text fill="black" id="N09_tt" x="200.0" y="295.0">N09</text><rect height="15" id="N10" width="15" x="192.5" y="252.5" /><text fill="black" id="N10_tt" x="200.0" y="250.0">N10</text><rect height="15" id="N11" width="15" x="192.5" y="207.5" /><text fill="black" id="N11_tt" x="200.0" y="205.0">N11</text><rect height="15" id="N12" width="15" x="192.5" y="162.5" /><text fill="black" id="N12_tt" x="200.0" y="160.0">N12</text><line id="l_N02_0_N03_0" stroke="rgb(10%,10%,16%)" stroke-width="2" x1="150.0" x2="150.0" y1="120.0" y2="165.0" /><line id="l_N02_1_N03_1" stroke="rgb(10%,10%,16%)" stroke-width="2" x1="153.0" x2="153.0" y1="120.0" y2="165.0" /><line id="l_N02_2_N03_2" stroke="rgb(10%,10%,16%)" stroke-width="2" x1="156.0" x2="156.0" y1="120.0" y2="165.0" /><line id="l_N02_3_N03_3" stroke="rgb(10%,10%,16%)" stroke-width="2" x1="159.0" x2="159.0" y1="120.0" y2="165.0" /><line id="l_N03_0_N04_0" stroke="rgb(10%,10%,16%)" stroke-width="2" x1="150.0" x2="150.0" y1="165.0" y2="210.0" /><line id="l_N03_1_N04_1" stroke="rgb(10%,10%,16%)" stroke-width="2" x1="153.0" x2="153.0" y1="165.0" y2="210.0" /><line id="l_N03_2_N04_2" stroke="rgb(10%,10%,16%)" stroke-width="2" x1="156.0" x2="156.0" y1="165.0" y2="210.0" /><line id="l_N03_3_N04_3" stroke="rgb(10%,10%,16%)" stroke-width="2" x1="159.0" x2="159.0" y1="165.0" y2="210.0" /><line id="l_N04_0_N05_0" stroke="rgb(10%,10%,16%)" stroke-width="2" x1="150.0" x2="150.0" y1="210.0" y2="255.0" /><line id="l_N04_1_N05_1" stroke="rgb(10%,10%,16%)" stroke-width="2" x1="153.0" x2="153.0" y1="210.0" y2="255.0" /><line id="l_N04_2_N05_2" stroke="rgb(10%,10%,16%)" stroke-width="2" x1="156.0" x2="156.0" y1="210.0" y2="255.0" /><line id="l_N04_3_N05_3" stroke="rgb(10%,10%,16%)" stroke-width="2" x1="159.0" x2="159.0" y1="210.0" y2="255.0" /><line id="l_N05_0_N06_0" stroke="rgb(10%,10%,16%)" stroke-width="2" x1="150.0" x2="150.0" y1="255.0" y2="300.0" /><line id="l_N05_1_N06_1" stroke="rgb(10%,10%,16%)" stroke-width="2" x1="153.0" x2="153.0" y1="255.0" y2="300.0" /><line id="l_N05_2_N06_2" stroke="rgb(10%,10%,16%)" stroke-width="2" x1="156.0" x2="156.0" y1="255.0" y2="300.0" /><line id="l_N05_3_N06_3" stroke="rgb(10%,10%,16%)" stroke-width="2" x1="159.0" x2="159.0" y1="255.0" y2="300.0" /><line id="l_N06_0_N07_0" stroke="rgb(10%,10%,16%)" stroke-width="2" x1="150.0" x2="150.0" y1="300.0" y2="345.0" /><line id="l_N06_1_N07_1" stroke="rgb(10%,10%,16%)" stroke-width="2" x1="153.0" x2="153.0" y1="300.0" y2="345.0" /><line id="l_N06_2_N07_2" stroke="rgb(10%,10%,16%)" stroke-width="2" x1="156.0" x2="156.0" y1="300.0" y2="345.0" /><line id="l_N06_3_N07_3" stroke="rgb(10%,10%,16%)" stroke-width="2" x1="159.0" x2="159.0" y1="300.0" y2="345.0" /><line id="l_N07_0_N08_0" stroke="rgb(10%,10%,16%)" stroke-width="2" x1="150.0" x2="150.0" y1="345.0" y2="390.0" /><line id="l_N07_1_N08_1" stroke="rgb(10%,10%,16%)" stroke-width="2" x1="153.0" x2="153.0" y1="345.0" y2="390.0" /><line id="l_N07_2_N08_2" stroke="rgb(10%,10%,16%)" stroke-width="2" x1="156.0" x2="156.0" y1="345.0" y2="390.0" /><line id="l_N07_3_N08_3" stroke="rgb(10%,10%,16%)" stroke-width="2" x1="159.0" x2="159.0" y1="345.0" y2="390.0" /><line id="l_N06_0_N09_0" stroke="rgb(10%,10%,16%)" stroke-width="2" x1="150.0" x2="195.0" y1="300.0" y2="300.0" /><line id="l_N06_1_N09_1" stroke="rgb(10%,10%,16%)" stroke-width="2" x1="150.0" x2="195.0" y1="303.0" y2="303.0" /><line id="l_N06_2_N09_2" stroke="rgb(10%,10%,16%)" stroke-width="2" x1="150.0" x2="195.0" y1="306.0" y2="306.0" /><line id="l_N06_3_N09_3" stroke="rgb(10%,10%,16%)" stroke-width="2" x1="150.0" x2="195.0" y1="309.0" y2="309.0" /><line id="l_N05_0_N10_0" stroke="rgb(10%,10%,16%)" stroke-width="2" x1="150.0" x2="195.0" y1="255.0" y2="255.0" /><line id="l_N05_1_N10_1" stroke="rgb(10%,10%,16%)" stroke-width="2" x1="150.0" x2="195.0" y1="258.0" y2="258.0" /><line id="l_N05_2_N10_2" stroke="rgb(10%,10%,16%)" stroke-width="2" x1="150.0" x2="195.0" y1="261.0" y2="261.0" /><line id="l_N05_3_N10_3" stroke="rgb(10%,10%,16%)" stroke-width="2" x1="150.0" x2="195.0" y1="264.0" y2="264.0" /><line id="l_N04_0_N11_0" stroke="rgb(10%,10%,16%)" stroke-width="2" x1="150.0" x2="195.0" y1="210.0" y2="210.0" /><line id="l_N04_1_N11_1" stroke="rgb(10%,10%,16%)" stroke-width="2" x1="150.0" x2="195.0" y1="213.0" y2="213.0" /><line id="l_N04_2_N11_2" stroke="rgb(10%,10%,16%)" stroke-width="2" x1="150.0" x2="195.0" y1="216.0" y2="216.0" /><line id="l_N04_3_N11_3" stroke="rgb(10%,10%,16%)" stroke-width="2" x1="150.0" x2="195.0" y1="219.0" y2="219.0" /><line id="l_N03_0_N12_0" stroke="rgb(10%,10%,16%)" stroke-width="2" x1="150.0" x2="195.0" y1="165.0" y2="165.0" /><line id="l_N03_1_N12_1" stroke="rgb(10%,10%,16%)" stroke-width="2" x1="150.0" x2="195.0" y1="168.0" y2="168.0" /><line id="l_N03_2_N12_2" stroke="rgb(10%,10%,16%)" stroke-width="2" x1="150.0" x2="195.0" y1="171.0" y2="171.0" /><line id="l_N03_3_N12_3" stroke="rgb(10%,10%,16%)" stroke-width="2" x1="150.0" x2="195.0" y1="174.0" y2="174.0" /><line stroke="rgb(10%,10%,16%)" x1="150.0" x2="150.0" y1="75.0" y2="120.0" /></svg>